<svg width="50" height="50" viewBox="0 0 50 50" fill="none" xmlns="http://www.w3.org/2000/svg">
<path d="M25.0013 4.16699C13.5221 4.16699 4.16797 13.5212 4.16797 25.0003C4.16797 36.4795 13.5221 45.8337 25.0013 45.8337C36.4805 45.8337 45.8346 36.4795 45.8346 25.0003C45.8346 13.5212 36.4805 4.16699 25.0013 4.16699ZM33.3346 26.5628H26.5638V33.3337C26.5638 34.1878 25.8555 34.8962 25.0013 34.8962C24.1471 34.8962 23.4388 34.1878 23.4388 33.3337V26.5628H16.668C15.8138 26.5628 15.1055 25.8545 15.1055 25.0003C15.1055 24.1462 15.8138 23.4378 16.668 23.4378H23.4388V16.667C23.4388 15.8128 24.1471 15.1045 25.0013 15.1045C25.8555 15.1045 26.5638 15.8128 26.5638 16.667V23.4378H33.3346C34.1888 23.4378 34.8971 24.1462 34.8971 25.0003C34.8971 25.8545 34.1888 26.5628 33.3346 26.5628Z" fill="url(#paint0_linear_2780_5556)"/>
<defs>
<linearGradient id="paint0_linear_2780_5556" x1="25.0013" y1="4.16699" x2="25.0013" y2="45.8337" gradientUnits="userSpaceOnUse">
<stop stop-color="#7AA8E4"/>
<stop offset="1" stop-color="#3667B7"/>
</linearGradient>
</defs>
</svg>
