<svg width="62" height="52" viewBox="0 0 62 52" fill="none" xmlns="http://www.w3.org/2000/svg">
<path fill-rule="evenodd" clip-rule="evenodd" d="M47.8289 40.4446C50.6858 36.1689 52.2106 31.1421 52.2106 25.9998H43.0943C43.0943 29.3391 42.1041 32.6033 40.2489 35.3798C38.3937 38.1563 35.7569 40.3203 32.6718 41.5982C29.5868 42.876 26.1921 43.2104 22.917 42.5589C19.6419 41.9075 16.6336 40.2995 14.2724 37.9383C11.9112 35.5771 10.3032 32.5687 9.65171 29.2936C9.00025 26.0186 9.3346 22.6239 10.6125 19.5388C11.8903 16.4538 14.0543 13.8169 16.8308 11.9617C19.6073 10.1065 22.8716 9.11635 26.2108 9.11635V0C21.0685 0 16.0417 1.52486 11.7661 4.38176C7.4904 7.23866 4.15794 11.2993 2.19007 16.0501C0.222203 20.801 -0.292681 26.0287 0.710529 31.0722C1.71374 36.1156 4.18998 40.7484 7.82613 44.3845C11.4623 48.0206 16.095 50.4969 21.1385 51.5001C26.1819 52.5033 31.4096 51.9884 36.1605 50.0206C40.9114 48.0527 44.972 44.7202 47.8289 40.4446ZM34.4223 25.9995L48.1064 8.89436L61.7905 25.9995H34.4223Z" fill="url(#paint0_linear_2780_5149)"/>
<defs>
<linearGradient id="paint0_linear_2780_5149" x1="0.210937" y1="25.9999" x2="61.7905" y2="25.9999" gradientUnits="userSpaceOnUse">
<stop stop-color="#660236"/>
<stop offset="1" stop-color="#F03F9C"/>
</linearGradient>
</defs>
</svg>
