<svg width="24" height="24" viewBox="0 0 24 24" fill="none" xmlns="http://www.w3.org/2000/svg">
<path d="M20.5135 8.20346L21.3125 10.001C21.3126 10.0014 21.3128 10.0017 21.3129 10.002C21.4958 10.4203 21.5475 10.9662 21.4582 11.5151C21.3688 12.0644 21.1466 12.5661 20.8399 12.9046C20.8399 12.9047 20.8399 12.9047 20.8399 12.9047L13.9905 20.4441C12.8889 21.6558 11.112 21.6558 10.0104 20.4441L3.161 12.9047C3.16093 12.9046 3.16085 12.9045 3.16078 12.9045C2.85419 12.5659 2.63204 12.0643 2.54271 11.5151C2.45344 10.9663 2.50504 10.4204 2.68792 10.0022C2.68809 10.0018 2.68825 10.0014 2.68842 10.001L3.48735 8.20346L5.24671 4.24489C5.46365 3.76521 5.72216 3.37716 6.08437 3.10526C6.43947 2.83869 6.93894 2.65039 7.70044 2.65039H16.3004C17.0619 2.65039 17.5614 2.83869 17.9165 3.10526C18.2788 3.3772 18.5373 3.76531 18.7543 4.24508C18.7544 4.24549 18.7546 4.24589 18.7548 4.2463L20.5135 8.20346Z" fill="url(#paint0_linear_2508_4132)" stroke="url(#paint1_linear_2508_4132)"/>
<defs>
<linearGradient id="paint0_linear_2508_4132" x1="12.0004" y1="2.15039" x2="12.0004" y2="21.8529" gradientUnits="userSpaceOnUse">
<stop stop-color="#7AA8E4"/>
<stop offset="1" stop-color="#3667B7"/>
</linearGradient>
<linearGradient id="paint1_linear_2508_4132" x1="12.0004" y1="2.15039" x2="12.0004" y2="21.8529" gradientUnits="userSpaceOnUse">
<stop stop-color="#7AA8E4"/>
<stop offset="1" stop-color="#3667B7"/>
</linearGradient>
</defs>
</svg>
