<svg width="15" height="15" viewBox="0 0 15 15" fill="none" xmlns="http://www.w3.org/2000/svg">
<path d="M7.91286 4.82571C7.64714 4.82571 7.42857 4.74 7.25714 4.56857C7.08571 4.39714 7 4.17857 7 3.91286C7 3.64714 7.08571 3.42857 7.25714 3.25714C7.42857 3.08571 7.64714 3 7.91286 3C8.17857 3 8.39714 3.08571 8.56857 3.25714C8.74 3.42857 8.82571 3.64714 8.82571 3.91286C8.82571 4.17857 8.74 4.39714 8.56857 4.56857C8.39714 4.74 8.17857 4.82571 7.91286 4.82571ZM7.29571 12.2957C7.25286 12.2957 7.21429 12.2829 7.18 12.2571C7.15429 12.2229 7.14143 12.1843 7.14143 12.1414V5.86714C7.14143 5.82429 7.15429 5.79 7.18 5.76429C7.21429 5.73 7.25286 5.71286 7.29571 5.71286H8.47857C8.52143 5.71286 8.55571 5.73 8.58143 5.76429C8.61571 5.79 8.63286 5.82429 8.63286 5.86714V12.1414C8.63286 12.1843 8.61571 12.2229 8.58143 12.2571C8.55571 12.2829 8.52143 12.2957 8.47857 12.2957H7.29571Z" fill="white"/>
<circle cx="7.5" cy="7.5" r="7" stroke="#D9D9D9"/>
</svg>
